<?xml version="1.0" standalone="no"?>
<!DOCTYPE svg PUBLIC "-//W3C//DTD SVG 20010904//EN"
 "http://www.w3.org/TR/2001/REC-SVG-20010904/DTD/svg10.dtd">
<svg version="1.0" xmlns="http://www.w3.org/2000/svg"
 width="2048.000000pt" height="2048.000000pt" viewBox="0 0 2048.000000 2048.000000"
 preserveAspectRatio="xMidYMid meet">
<metadata>
Created by potrace 1.11, written by Peter Selinger 2001-2013
</metadata>
<g transform="translate(0.000000,2048.000000) scale(0.100000,-0.100000)"
fill="#000000" stroke="none">
<path d="M8583 12093 c-7 -3 -13 -9 -13 -14 0 -9 -94 -261 -125 -334 -12 -29
-42 -106 -104 -270 -77 -203 -142 -372 -150 -390 -5 -11 -29 -74 -54 -140 -61
-161 -114 -299 -138 -360 -68 -175 -171 -442 -173 -450 -2 -5 -8 -23 -15 -40
-6 -16 -25 -66 -42 -110 -17 -44 -35 -89 -39 -100 -5 -11 -27 -69 -50 -130
-58 -152 -169 -436 -179 -460 -5 -11 -23 -58 -41 -105 -18 -47 -43 -113 -56
-147 -13 -34 -27 -76 -30 -92 -8 -38 2 -81 20 -81 7 0 39 -8 72 -19 32 -10
113 -33 179 -51 66 -18 132 -39 147 -47 15 -7 31 -12 35 -11 9 2 112 -27 155
-44 15 -5 40 -7 57 -3 27 6 42 27 56 80 2 6 11 28 20 50 10 22 18 42 18 45 0
3 12 34 27 70 15 36 28 70 30 75 1 6 6 19 10 30 5 11 24 63 44 115 20 52 39
102 43 110 3 8 14 35 23 60 44 119 353 920 368 955 9 21 17 42 17 45 2 13 19
59 41 108 13 29 24 55 24 59 0 6 52 144 75 198 7 17 29 73 49 125 19 52 54
142 76 200 23 58 45 116 50 130 8 26 94 251 109 285 22 52 87 224 90 237 1 4
11 29 22 55 43 99 58 151 46 161 -13 9 -91 35 -217 72 -41 12 -131 39 -199 60
-69 22 -128 37 -133 34 -4 -3 -8 0 -8 7 0 7 -3 10 -6 6 -4 -3 -24 1 -46 10
-21 8 -42 13 -45 9 -3 -3 -11 -2 -17 3 -6 4 -17 6 -23 4z"/>
<path d="M16544 11931 c-2 -3 -17 -5 -32 -6 -83 -5 -192 -22 -226 -35 -15 -5
-26 -8 -26 -5 0 2 -18 -2 -41 -10 -23 -8 -45 -12 -50 -9 -5 3 -9 0 -9 -5 0 -6
-6 -11 -14 -11 -12 0 -73 -23 -136 -53 -14 -6 -42 -22 -62 -34 -20 -13 -43
-24 -50 -25 -13 -3 -15 -4 -72 -48 -21 -17 -43 -30 -47 -30 -5 0 -57 -47 -115
-105 -58 -58 -103 -105 -99 -105 3 0 -2 -13 -12 -30 -9 -16 -20 -30 -23 -30
-4 0 -7 -6 -7 -12 0 -7 -12 -39 -27 -70 -14 -32 -23 -58 -20 -58 4 0 2 -6 -4
-13 -6 -7 -14 -28 -17 -46 -3 -19 -10 -42 -16 -52 -5 -11 -7 -19 -5 -19 3 0 1
-12 -5 -27 -12 -32 -15 -42 -33 -135 -8 -37 -11 -69 -9 -72 2 -2 -6 -21 -20
-43 -13 -21 -29 -54 -36 -73 -22 -60 -58 -240 -48 -240 6 0 6 -5 0 -12 -5 -7
-10 -31 -12 -53 -2 -38 -25 -70 -42 -60 -18 12 -34 -52 -18 -71 16 -19 5 -77
-22 -113 -15 -20 -23 -46 -24 -71 0 -22 -2 -40 -5 -40 -3 0 -5 -38 -5 -85 0
-56 -3 -85 -11 -85 -20 0 -44 -73 -41 -125 2 -47 36 -117 55 -113 23 4 37 -15
35 -50 -1 -20 -2 -38 -2 -40 -3 -9 -51 33 -51 44 0 8 -8 14 -19 14 -39 0 -4
-68 54 -106 14 -9 22 -20 19 -25 -3 -5 0 -9 6 -9 6 0 9 -4 6 -9 -10 -15 33
-164 66 -228 17 -34 42 -74 55 -88 13 -14 21 -25 18 -25 -3 0 3 -8 13 -18 9
-10 41 -44 70 -75 29 -31 58 -57 64 -57 6 0 8 -3 5 -6 -8 -8 75 -72 129 -99
22 -11 42 -24 46 -30 4 -5 8 -6 8 -1 0 5 7 3 15 -4 8 -7 15 -9 15 -5 0 4 6 3
13 -2 15 -13 49 -22 142 -37 6 -1 15 -4 20 -7 6 -3 60 -5 120 -3 127 2 159 7
257 37 26 8 49 12 52 9 4 -3 6 1 6 8 0 7 3 10 6 7 4 -3 16 -1 28 5 11 7 26 13
31 14 6 1 37 15 70 30 33 15 63 27 68 26 4 -1 7 2 7 7 0 5 8 12 18 15 36 12
182 152 182 175 0 8 3 12 6 8 7 -7 74 87 74 103 0 6 4 9 8 6 4 -3 16 11 27 30
10 19 22 34 27 34 5 0 6 -4 3 -10 -3 -5 -2 -10 2 -10 5 0 10 -15 11 -32 2 -18
7 -34 12 -36 6 -2 10 -8 10 -14 0 -16 28 -39 54 -44 35 -6 81 35 84 76 2 30 1
32 -15 19 -10 -8 -24 -22 -31 -31 -7 -10 -17 -18 -21 -18 -15 0 -27 55 -22
100 1 6 10 5 26 -2 19 -9 29 -8 49 6 24 15 64 76 50 76 -4 0 -2 6 3 13 5 6 9
39 8 72 -1 47 4 69 22 103 13 23 21 42 16 42 -4 0 -2 5 5 12 7 7 12 20 12 30
0 10 4 18 8 18 4 0 8 8 9 18 1 9 3 28 5 42 1 14 -1 44 -5 67 -7 44 -35 70 -63
59 -11 -4 -14 1 -10 22 2 15 5 27 6 27 1 0 4 11 5 25 4 27 13 65 15 65 1 0 3
16 6 35 2 19 6 44 9 55 2 11 4 27 4 35 1 8 14 21 29 28 16 7 35 23 42 37 7 14
18 25 24 24 63 -7 93 31 100 127 2 17 6 35 9 41 4 6 4 18 1 26 -4 13 1 14 31
7 28 -6 38 -5 42 6 3 8 9 12 13 9 4 -3 10 1 13 8 8 22 3 251 -7 265 -4 7 -5
16 -2 19 3 3 2 11 -3 17 -10 12 17 81 27 71 3 -2 11 0 19 6 7 6 13 8 13 3 0
-5 9 4 19 20 16 24 17 33 8 55 -6 14 -14 28 -17 31 -30 29 -42 51 -33 62 15
20 24 50 13 43 -6 -4 -8 6 -6 25 2 17 0 33 -4 35 -4 3 -4 20 0 39 4 19 3 41
-3 52 -13 24 -55 64 -68 64 -5 0 -9 5 -9 12 0 6 -3 9 -6 5 -7 -7 -38 22 -40
37 -1 6 -2 19 -3 29 0 9 -8 17 -16 17 -19 0 -37 34 -25 46 6 6 4 19 -5 34 -16
28 -23 43 -30 65 -4 13 -35 31 -67 40 -5 2 -9 4 -10 5 -2 1 -12 4 -23 5 -28 3
-96 45 -90 55 3 5 -1 15 -9 23 -8 8 -12 17 -9 21 6 6 -12 10 -29 7 -5 0 -8 3
-8 8 0 5 -11 12 -25 15 -14 4 -25 11 -25 17 0 14 -26 39 -40 39 -6 0 -8 5 -5
10 4 6 -8 10 -29 10 -47 0 -49 0 -61 9 -5 5 -25 7 -42 6 -31 -1 -32 -1 -16 17
17 20 25 78 13 98 -6 9 -43 13 -125 14 -64 1 -119 -1 -121 -3z"/>
<path d="M9411 11821 c-26 -20 -27 -38 -14 -237 4 -65 6 -312 5 -549 -2 -236
-4 -811 -6 -1277 -2 -771 -1 -849 14 -868 l17 -22 467 0 c257 0 471 3 474 7 3
3 8 218 9 478 3 416 6 563 12 617 1 12 4 12 15 -3 43 -56 126 -176 126 -182 0
-2 46 -71 102 -152 182 -265 390 -576 396 -592 5 -16 51 -81 63 -91 4 -3 9
-15 13 -26 4 -12 15 -29 26 -39 19 -17 56 -18 615 -18 327 1 598 4 604 7 19
12 -11 76 -66 136 -13 14 -23 27 -23 31 0 6 -185 257 -327 442 -54 71 -107
141 -118 157 -112 157 -170 236 -175 240 -5 5 -62 80 -291 390 -47 63 -97 133
-111 156 l-26 40 36 50 c19 27 38 51 42 54 3 3 44 55 90 115 46 61 102 132
124 160 23 27 48 58 56 69 21 26 89 106 103 121 7 7 28 32 47 56 19 24 55 66
80 94 25 28 59 68 75 89 17 21 35 44 40 50 6 6 18 21 26 33 8 12 36 46 61 75
65 76 158 188 193 233 17 21 47 58 68 84 34 42 47 79 30 83 -5 0 -268 2 -586
3 l-578 1 -22 -30 c-12 -17 -31 -42 -44 -56 -12 -14 -61 -81 -109 -150 -72
-103 -151 -213 -191 -265 -5 -5 -29 -41 -55 -80 -26 -38 -65 -93 -85 -121 -96
-131 -157 -214 -198 -268 l-45 -60 0 115 c-1 62 -1 179 -1 259 -1 130 8 478
15 587 2 23 -1 48 -5 55 -7 10 -104 13 -476 15 -432 1 -470 0 -492 -16z"/>
<path d="M12511 11826 c-4 -6 -7 -664 -7 -1462 2 -1280 3 -1454 17 -1474 l15
-23 950 1 c1045 1 1097 1 1115 12 9 6 12 99 11 410 -1 363 -3 404 -18 421 -9
10 -21 16 -27 12 -9 -5 -952 -8 -952 -3 0 1 -27 3 -60 5 -33 1 -70 3 -83 4
-22 1 -22 3 -20 125 l1 124 316 -4 c174 -1 379 -6 456 -10 185 -10 242 -9 257
4 10 8 13 92 13 386 -1 344 -2 378 -18 394 -16 16 -56 17 -480 19 -254 1 -478
4 -497 5 -32 3 -35 6 -34 36 1 17 2 58 3 90 l1 57 473 3 c625 3 590 1 593 32
8 57 9 821 2 833 -10 16 -2014 19 -2027 3z"/>
<path d="M7045 11285 c-22 -6 -59 -22 -82 -34 -24 -12 -43 -19 -43 -15 0 4 -6
2 -12 -4 -7 -5 -60 -29 -118 -52 -58 -23 -118 -48 -135 -55 -16 -7 -70 -30
-118 -50 -48 -19 -100 -41 -115 -47 -15 -6 -29 -12 -32 -13 -3 -1 -18 -7 -35
-14 -16 -7 -95 -38 -175 -68 -80 -30 -164 -63 -187 -74 -23 -10 -48 -19 -55
-19 -8 0 -18 -4 -23 -8 -11 -10 -114 -52 -136 -56 -8 -1 -30 -9 -49 -18 -19
-8 -75 -29 -123 -47 -48 -18 -100 -39 -115 -47 -15 -8 -33 -14 -39 -14 -7 0
-36 -11 -65 -25 -29 -13 -118 -50 -198 -81 -80 -31 -157 -65 -172 -76 l-27
-19 1 -274 c1 -238 3 -276 17 -288 9 -8 90 -42 181 -77 91 -34 183 -71 204
-81 22 -11 44 -19 48 -19 5 0 53 -18 106 -41 53 -22 142 -58 197 -81 55 -22
112 -46 127 -54 14 -8 32 -14 40 -14 7 0 30 -9 51 -20 20 -11 38 -20 39 -19 2
0 17 -5 33 -11 17 -6 73 -27 125 -45 52 -18 113 -41 135 -50 22 -10 42 -17 45
-17 3 0 15 -4 28 -9 13 -5 28 -9 33 -9 11 0 65 -23 177 -77 95 -45 200 -88
284 -118 65 -23 127 -48 160 -66 30 -15 75 -11 83 9 12 28 20 461 11 600 -4
50 -18 82 -38 82 -5 0 -37 13 -72 29 -34 16 -114 48 -177 69 -63 22 -148 55
-188 72 -41 18 -93 38 -115 45 -23 7 -75 26 -116 42 -41 16 -77 29 -80 29 -3
-1 -24 6 -45 16 -22 9 -71 28 -110 43 -38 15 -81 31 -94 36 -19 8 -21 12 -11
24 6 7 26 17 43 21 17 3 38 10 47 15 26 15 160 74 255 114 50 20 99 41 110 45
11 5 47 20 80 34 33 13 129 55 214 91 85 37 160 69 165 70 36 9 63 21 100 40
l41 22 3 331 c1 183 -1 332 -5 333 -5 0 -15 2 -23 3 -8 2 -33 -2 -55 -9z"/>
</g>
</svg>
